<?xml version="1.0" standalone="no"?>
<!DOCTYPE svg PUBLIC "-//W3C//DTD SVG 20010904//EN"
 "http://www.w3.org/TR/2001/REC-SVG-20010904/DTD/svg10.dtd">
<svg version="1.0" xmlns="http://www.w3.org/2000/svg"
 width="1586.000000pt" height="992.000000pt" viewBox="0 0 1586.000000 992.000000"
 preserveAspectRatio="xMidYMid meet">

<g transform="translate(0.000000,992.000000) scale(0.100000,-0.100000)"
fill="#000000" stroke="none">
<path d="M0 4960 l0 -4960 7930 0 7930 0 0 4960 0 4960 -7930 0 -7930 0 0
-4960z m4085 4421 c-5 -9 23 -34 48 -44 14 -5 17 -20 17 -78 0 -62 -2 -71 -20
-76 -11 -3 -20 -14 -20 -24 0 -12 -7 -19 -20 -19 -13 0 -20 -7 -20 -20 0 -11
-7 -20 -15 -20 -8 0 -15 -4 -15 -10 0 -5 -9 -10 -20 -10 -14 0 -20 -6 -18 -17
3 -15 -7 -18 -63 -21 -60 -3 -67 -1 -72 18 -3 12 -13 20 -26 20 -14 0 -21 6
-21 19 0 13 -8 21 -22 23 -15 2 -24 11 -26 24 -2 12 -12 24 -23 27 -17 5 -19
14 -19 81 0 64 3 78 18 83 22 9 42 29 42 42 0 6 20 11 45 11 35 0 45 -4 45
-16 0 -9 9 -18 20 -21 11 -3 20 -9 20 -14 0 -5 7 -9 15 -9 8 0 15 5 15 10 0 6
9 10 20 10 13 0 20 7 20 18 0 10 2 21 4 23 8 7 96 -3 91 -10z m307 -3 c2 -13
9 -22 16 -20 7 1 15 -5 18 -13 7 -17 34 -21 34 -5 0 6 9 10 19 10 13 0 21 8
23 22 3 20 8 23 42 20 27 -3 46 -11 59 -28 10 -13 25 -24 33 -24 11 0 14 -16
14 -71 0 -67 -2 -73 -34 -105 -19 -19 -39 -34 -45 -34 -6 0 -11 -9 -11 -20 0
-13 -7 -20 -20 -20 -12 0 -24 -10 -30 -24 -8 -22 -14 -23 -72 -22 -57 1 -63 3
-66 24 -2 14 -10 22 -23 22 -10 0 -19 7 -19 15 0 9 -12 20 -26 25 -14 6 -28
19 -31 30 -3 11 -12 20 -19 20 -11 0 -14 19 -14 80 0 73 2 80 20 80 11 0 20 5
20 12 0 25 34 48 71 48 31 0 38 -4 41 -22z m499 13 c4 -1 9 -10 12 -21 3 -11
13 -20 22 -20 9 0 13 -4 10 -10 -3 -5 3 -10 13 -10 11 0 22 7 26 15 3 8 11 14
18 13 7 -2 14 7 16 20 3 18 10 22 41 22 30 0 42 -6 59 -30 13 -16 29 -30 37
-30 12 0 15 -16 15 -75 0 -59 -3 -75 -14 -75 -8 0 -23 -13 -33 -30 -9 -16 -23
-30 -30 -30 -7 0 -13 -9 -13 -20 0 -13 -7 -20 -20 -20 -13 0 -24 -10 -30 -25
-9 -25 -13 -26 -72 -23 -57 3 -63 5 -66 26 -2 14 -10 22 -23 22 -11 0 -24 11
-30 24 -6 13 -20 27 -30 29 -11 3 -19 12 -19 20 0 8 -9 17 -20 20 -19 5 -21
12 -18 84 2 64 6 78 18 76 9 -2 23 10 33 26 16 28 20 29 98 22z m516 -11 c3
-11 12 -20 19 -20 8 0 17 -7 20 -15 4 -8 12 -15 19 -15 7 0 15 7 19 15 3 8 12
15 20 15 7 0 16 9 19 20 8 30 71 28 100 -3 12 -13 30 -26 40 -30 14 -5 17 -19
17 -82 0 -68 -2 -75 -20 -75 -13 0 -20 -7 -20 -20 0 -12 -7 -20 -16 -20 -8 0
-22 -6 -30 -14 -8 -8 -14 -22 -14 -30 0 -10 -9 -16 -21 -16 -12 0 -23 -8 -26
-20 -5 -18 -14 -20 -74 -20 -62 0 -69 2 -69 19 0 13 -8 21 -22 23 -15 2 -24
11 -26 26 -2 14 -10 22 -23 22 -13 0 -19 7 -19 21 0 12 -8 23 -20 26 -18 5
-20 14 -20 79 0 52 4 74 13 74 6 1 23 14 37 30 30 37 89 43 97 10z m-2040 -10
c3 -11 11 -20 18 -20 7 0 15 -7 19 -15 3 -8 12 -15 21 -15 8 0 15 7 15 15 0 8
9 15 20 15 13 0 20 7 20 20 0 17 7 20 43 20 34 -1 47 -6 67 -30 13 -17 30 -30
37 -30 10 0 13 -20 13 -75 0 -67 -2 -75 -19 -75 -13 0 -21 -8 -23 -22 -2 -15
-11 -24 -25 -26 -17 -3 -23 -10 -23 -28 0 -19 -5 -24 -25 -24 -18 0 -25 -5
-25 -19 0 -14 -10 -20 -45 -24 -63 -9 -105 1 -105 24 0 12 -7 19 -20 19 -13 0
-20 7 -20 20 0 13 -9 22 -25 26 -14 3 -25 12 -25 20 0 7 -9 18 -20 24 -17 9
-20 21 -20 91 0 58 3 79 13 78 27 -3 37 2 37 19 0 27 9 32 53 32 30 0 40 -4
44 -20z m50 -680 c3 -11 14 -20 24 -20 16 0 19 -8 19 -45 0 -35 -4 -45 -16
-45 -9 0 -18 -9 -21 -20 -3 -11 -12 -20 -19 -20 -8 0 -14 -9 -14 -20 0 -13 -7
-20 -20 -20 -11 0 -20 -7 -20 -15 0 -8 -4 -15 -8 -15 -14 0 -62 -45 -62 -58 0
-7 -7 -12 -15 -12 -8 0 -15 -7 -15 -15 0 -24 -51 -19 -57 5 -3 11 -14 20 -24
20 -11 0 -19 7 -19 16 0 9 -9 18 -20 21 -42 11 -11 93 35 93 8 0 15 9 15 19 0
13 8 21 23 23 14 2 22 10 22 23 0 13 8 21 23 23 14 2 22 10 22 23 0 12 7 19
20 19 13 0 20 7 20 20 0 17 7 20 51 20 42 0 52 -3 56 -20z m435 2 c-1 -8 7
-16 18 -19 16 -4 20 -14 20 -49 0 -32 -4 -44 -15 -44 -8 0 -15 -9 -15 -20 0
-11 -7 -20 -15 -20 -8 0 -15 -7 -15 -15 0 -8 -6 -15 -13 -15 -6 0 -25 -16 -41
-35 -16 -19 -35 -35 -43 -35 -7 0 -13 -9 -13 -21 0 -11 -4 -18 -9 -14 -6 3
-15 -4 -21 -15 -12 -23 -48 -27 -56 -6 -3 8 -14 16 -25 19 -12 3 -17 11 -13
20 4 11 -2 16 -18 19 -19 2 -23 9 -23 38 0 24 4 34 13 32 8 -1 16 7 19 18 3
11 14 20 25 20 12 0 18 6 16 18 -2 11 3 17 17 17 13 0 21 8 23 23 2 14 10 22
23 22 12 0 19 7 19 20 0 13 7 20 20 20 14 0 20 7 20 21 0 18 5 20 53 17 37 -2
51 -7 49 -16z m451 -2 c3 -11 11 -19 19 -18 9 2 14 -11 16 -43 3 -40 0 -47
-19 -52 -12 -3 -18 -10 -14 -17 4 -7 -2 -14 -14 -17 -12 -3 -21 -12 -21 -19 0
-8 -7 -14 -16 -14 -9 0 -18 -9 -21 -20 -3 -11 -12 -20 -19 -20 -8 0 -14 -6
-14 -14 0 -7 -9 -16 -20 -19 -11 -3 -19 -9 -18 -14 1 -4 -6 -18 -17 -30 -25
-29 -65 -30 -72 -3 -3 11 -12 20 -19 20 -8 0 -14 7 -14 15 0 8 -9 15 -20 15
-17 0 -20 7 -20 40 0 28 4 40 14 40 8 0 16 7 20 15 3 8 12 15 20 15 9 0 13 6
10 14 -4 10 2 16 18 18 15 2 24 11 26 26 2 14 10 22 23 22 12 0 19 7 19 20 0
13 7 20 20 20 13 0 20 7 20 20 0 18 7 20 54 20 46 0 54 -3 59 -20z m-293 -659
c0 -28 3 -30 43 -33 35 -3 43 -7 45 -26 2 -14 -3 -29 -13 -36 -29 -21 -8 -45
43 -48 l47 -3 1 -88 c2 -76 -1 -91 -18 -107 -11 -10 -17 -23 -13 -29 3 -6 1
-11 -5 -11 -8 0 -11 -14 -8 -40 l4 -40 -73 0 c-53 0 -72 -3 -70 -12 1 -8 -11
-14 -28 -16 -16 -2 -34 -8 -40 -13 -13 -13 -21 -11 -39 7 -9 8 -16 11 -16 5 0
-6 -12 -11 -26 -11 -14 0 -23 4 -20 9 3 5 -25 11 -63 15 -66 7 -69 8 -75 37
-8 42 -31 62 -61 55 -17 -4 -27 -1 -34 11 -9 15 -12 16 -20 4 -6 -9 -15 -11
-27 -6 -29 12 -152 17 -159 6 -4 -7 -15 -6 -32 2 -21 9 -27 9 -31 -1 -5 -16
-39 -16 -46 1 -5 10 -7 10 -12 0 -3 -7 -15 -13 -27 -13 -18 0 -19 2 -7 10 13
8 12 10 -2 10 -10 0 -18 -4 -18 -8 0 -4 -15 -13 -32 -20 -30 -12 -32 -14 -15
-26 21 -16 22 -26 2 -26 -11 0 -12 -5 -5 -24 5 -14 5 -26 1 -28 -13 -5 -23
-58 -11 -58 6 0 9 4 6 8 -2 4 -1 14 5 22 6 10 9 11 9 3 0 -7 7 -13 16 -13 11
0 15 -6 11 -19 -7 -29 22 -31 365 -27 l306 3 4 -29 c3 -16 1 -31 -4 -34 -4 -3
-3 -14 2 -25 9 -15 7 -19 -7 -21 -10 -1 7 -4 37 -7 l55 -6 -3 -55 c-3 -54 -3
-56 23 -58 38 -3 42 -7 40 -43 -1 -23 3 -33 19 -39 21 -9 21 -9 -1 -9 -21 -1
-23 -6 -24 -61 -2 -81 0 -76 -34 -112 -29 -30 -32 -40 -34 -125 -1 -20 -6 -33
-14 -33 -9 0 -13 -22 -12 -82 l0 -83 -32 -3 c-30 -3 -33 -6 -33 -38 0 -34 0
-34 -45 -34 -43 0 -45 -1 -45 -30 l0 -30 -60 0 -60 0 0 -30 0 -30 -495 0
c-470 0 -495 1 -495 18 0 10 5 23 12 30 9 9 2 12 -35 12 l-47 0 0 36 c0 31 -3
35 -22 32 -18 -2 -22 2 -22 27 0 26 -4 31 -30 35 l-31 5 2 79 c2 44 5 81 8 84
3 3 15 6 28 7 20 1 22 7 25 63 l3 62 215 0 216 0 -4 -60 -3 -60 90 -1 c50 0
163 -1 252 -2 l163 -2 0 25 c2 87 10 136 26 147 14 10 15 13 3 14 -10 0 -10 2
-1 6 6 2 12 16 12 29 0 19 -5 24 -25 24 -14 0 -25 5 -25 10 0 6 -7 10 -16 10
-9 0 -12 -5 -8 -12 5 -9 2 -8 -9 1 -24 19 -107 22 -107 4 0 -7 -9 -13 -20 -13
-11 0 -20 7 -20 15 0 8 -4 15 -10 15 -5 0 -10 -4 -10 -10 0 -5 -9 -10 -21 -10
-13 0 -18 4 -13 12 5 8 -8 10 -49 5 -32 -3 -57 -2 -57 2 0 13 -63 12 -72 -1
-6 -10 -8 -10 -8 0 0 6 -4 12 -10 12 -5 0 -10 -7 -10 -15 0 -19 -10 -19 -38 1
-14 10 -22 11 -22 3 0 -7 -7 -8 -17 -4 -10 4 -49 11 -88 14 -67 6 -70 7 -73
34 -3 21 -9 27 -28 27 -21 0 -24 5 -24 35 0 33 -2 35 -31 35 -31 0 -31 0 -25
40 6 39 5 41 -23 46 -26 5 -28 9 -26 42 2 21 4 65 4 100 1 59 2 62 26 62 l25
0 1 115 c2 148 0 139 26 143 15 2 23 11 25 30 2 21 9 28 31 30 23 3 27 8 27
33 0 29 1 29 55 29 l55 0 0 55 c0 52 1 55 25 55 21 0 25 5 25 30 l0 30 530 0
530 0 0 -29z m898 1 c2 -13 -1 -28 -6 -35 -6 -7 -13 -32 -17 -57 -3 -25 -8
-54 -9 -65 -2 -11 -10 -19 -20 -19 -18 2 -18 -3 -16 -183 1 -66 -3 -103 -9
-103 -6 0 -11 5 -11 10 0 19 -16 10 -17 -9 -1 -13 6 -21 20 -24 21 -3 21 -4
-3 -15 -14 -6 -18 -11 -10 -12 13 0 13 -1 0 -10 -12 -8 -10 -10 10 -11 14 -1
31 -1 39 0 7 2 11 -4 8 -11 -2 -7 -10 -12 -16 -10 -6 1 -11 -2 -11 -7 0 -21
172 -28 333 -15 77 7 77 7 77 36 0 33 26 78 46 78 11 0 14 33 16 158 l3 157
29 3 29 4 -7 84 -6 84 245 0 245 0 0 -32 c0 -18 -3 -70 -7 -115 -5 -67 -9 -83
-22 -83 -9 0 -12 -3 -6 -8 24 -17 13 -38 -17 -33 -5 0 -8 -28 -8 -64 0 -45 4
-65 13 -65 8 0 7 -4 -3 -10 -13 -9 -13 -10 0 -10 11 0 12 -2 3 -8 -7 -4 -13
-31 -14 -60 -2 -36 -7 -56 -18 -62 -11 -6 -16 -24 -17 -55 -1 -26 -6 -50 -12
-54 -6 -3 -12 -47 -14 -98 -2 -76 0 -93 12 -96 8 -3 2 -8 -15 -11 -44 -11 -55
-44 -55 -162 0 -75 -4 -105 -13 -111 -8 -4 -16 -16 -20 -25 -3 -10 -12 -15
-20 -13 -10 4 -13 -16 -15 -95 -2 -81 -7 -108 -24 -138 -15 -27 -22 -61 -26
-124 l-5 -88 -233 0 -234 0 0 98 c0 100 13 142 45 142 12 0 15 28 17 148 2
111 6 146 16 145 6 -2 12 2 12 7 0 6 -6 10 -12 10 -10 0 -10 2 0 9 11 7 10 10
-3 15 -9 3 -25 6 -36 6 -10 0 -19 5 -19 10 0 6 18 10 40 10 34 0 40 3 40 22 0
12 -3 18 -7 15 -3 -4 -12 -2 -19 4 -9 7 -14 5 -19 -10 -5 -17 -10 -19 -25 -11
-12 7 -28 7 -44 0 -18 -7 -26 -6 -26 1 0 6 -9 9 -20 6 -11 -3 -23 -1 -26 4 -7
12 -94 12 -94 0 0 -5 -20 -9 -45 -8 -25 1 -45 5 -45 10 0 12 -21 8 -37 -8 -12
-12 -18 -13 -29 -4 -10 8 -14 8 -14 0 0 -6 -9 -11 -20 -11 -20 0 -28 -15 -11
-22 5 -1 3 -9 -5 -16 -12 -11 -14 -10 -16 5 -1 10 -4 -18 -7 -62 -6 -78 -7
-80 -33 -83 l-28 -3 0 -128 c0 -134 -8 -159 -44 -145 -14 5 -16 -4 -16 -75 l0
-81 -222 2 -221 3 0 120 c1 101 4 121 17 123 12 3 16 16 16 59 0 46 3 56 20
60 19 5 20 14 20 118 0 91 3 114 15 119 8 3 15 17 15 31 0 16 6 25 15 25 13 0
15 20 15 120 0 100 3 120 15 120 8 0 15 9 15 20 0 11 7 23 15 26 12 5 15 30
15 135 0 105 3 129 14 129 8 0 17 13 21 30 4 16 11 32 16 35 5 4 9 55 9 116 0
102 1 109 20 109 18 0 20 7 20 53 0 30 3 57 7 61 4 3 117 5 252 4 l246 -3 3
-23z m2402 -1 c0 -28 3 -30 43 -33 41 -3 42 -4 43 -38 3 -71 1 -69 52 -72 l47
-3 1 -115 c2 -141 -9 -228 -32 -245 -11 -8 -15 -20 -11 -34 3 -13 -1 -25 -11
-32 -14 -8 -14 -11 -3 -16 11 -5 11 -7 0 -14 -12 -7 -11 -9 1 -9 13 0 13 -2 1
-9 -12 -8 -12 -12 -2 -25 8 -9 9 -16 3 -16 -5 0 -9 -17 -9 -37 1 -47 -11 -96
-25 -104 -5 -4 -11 -18 -11 -33 -1 -14 -5 -26 -10 -26 -4 0 -6 -12 -6 -27 1
-16 1 -45 0 -67 -1 -35 -3 -38 -26 -34 -14 3 -25 1 -25 -3 0 -5 8 -9 18 -9 16
-1 16 -2 -1 -15 -14 -10 -18 -25 -17 -57 5 -112 0 -158 -15 -158 -12 0 -15
-16 -15 -85 l0 -85 -30 0 c-28 0 -30 -3 -30 -35 l0 -35 -50 0 c-27 0 -49 -3
-49 -7 1 -5 1 -18 0 -30 -1 -21 -6 -23 -67 -23 l-65 0 3 -27 3 -28 -472 -3
-473 -2 0 30 0 30 -60 0 -60 0 0 30 c0 26 -5 31 -30 37 -25 4 -30 10 -30 34 0
24 -4 29 -25 29 -25 0 -25 1 -25 78 0 112 9 152 31 152 18 0 19 9 19 120 l0
120 28 1 27 1 -25 8 c-14 4 -19 8 -12 9 7 1 11 5 8 10 -3 5 3 11 14 14 18 5
19 12 15 107 -4 95 -3 102 15 107 17 5 23 20 19 49 0 4 4 10 9 13 5 3 12 44
16 91 3 47 6 86 6 88 0 1 11 7 25 12 24 9 25 12 25 114 l0 105 33 3 c27 2 33
8 35 31 3 23 8 27 37 27 34 0 34 0 37 53 l3 52 58 5 c31 3 57 8 57 13 -1 51
-47 47 495 47 l495 0 0 -29z m1610 -30 c0 -33 -4 -63 -10 -66 -5 -3 -10 -17
-10 -31 0 -16 -6 -24 -17 -25 -17 -1 -17 -2 0 -6 9 -2 17 -9 17 -15 0 -5 -7
-8 -15 -4 -13 4 -15 -9 -15 -84 0 -49 -5 -92 -10 -95 -6 -4 -8 -11 -5 -16 4
-5 -11 -8 -32 -8 -59 1 -285 -11 -294 -16 -4 -3 -5 -14 -2 -25 3 -12 0 -20 -6
-20 -7 0 -9 -4 -6 -10 3 -5 0 -10 -7 -11 -10 0 -10 -2 0 -6 13 -5 17 -24 5
-22 -20 3 -34 -3 -51 -22 -16 -16 -20 -36 -21 -112 -2 -142 -9 -177 -35 -177
-24 0 -23 8 -25 -184 -1 -63 -2 -68 -21 -63 -17 4 -20 0 -20 -29 0 -20 5 -34
13 -34 9 0 9 -2 1 -8 -10 -6 -21 -104 -23 -206 -1 -23 -5 -27 -21 -23 -18 5
-20 0 -21 -51 -1 -32 0 -70 1 -85 1 -15 -1 -46 -5 -67 l-7 -40 -233 0 -234 0
3 95 c1 52 5 98 9 101 4 4 7 16 7 27 0 10 9 21 20 24 19 5 20 14 20 147 0 79
4 146 10 152 5 5 11 30 12 56 2 35 8 48 21 52 15 4 17 18 17 125 0 101 2 121
15 121 10 0 15 10 15 30 0 20 5 30 15 30 12 0 15 13 15 55 0 30 -4 55 -10 55
-5 0 -10 5 -10 11 0 5 5 7 10 4 6 -3 10 1 10 10 0 9 -4 13 -10 10 -5 -3 -10
-1 -10 4 0 6 6 11 13 11 8 0 7 4 -3 11 -12 9 -13 12 -1 16 11 5 11 7 0 15 -12
8 -12 10 -1 15 10 4 8 9 -6 19 -14 10 -59 13 -176 11 -128 -1 -159 2 -167 13
-12 20 -11 182 1 215 7 18 15 25 25 21 13 -4 15 8 15 73 0 43 3 81 7 84 3 4
285 7 625 7 l618 0 0 -59z m1300 29 c0 -28 1 -29 58 -32 36 -2 57 -7 58 -15 1
-7 2 -31 3 -53 1 -40 1 -40 41 -40 l40 0 0 -55 c0 -39 -4 -57 -14 -61 -11 -4
-14 -29 -15 -106 -1 -55 -4 -104 -7 -109 -3 -5 -32 -9 -65 -9 -52 0 -59 -2
-59 -20 0 -16 -7 -20 -30 -20 -17 0 -30 5 -30 13 0 8 -3 8 -9 -2 -8 -12 -12
-11 -27 3 -16 16 -18 16 -26 2 -10 -18 -48 -22 -48 -4 0 6 -11 -2 -25 -18 -26
-30 -35 -29 -38 5 -1 16 -8 21 -27 20 -17 0 -20 -3 -10 -7 8 -4 16 -12 17 -18
3 -15 -31 -24 -48 -13 -10 6 -7 9 11 10 23 1 23 2 -6 10 -35 10 -44 43 -10 34
12 -3 15 -2 9 1 -7 3 -13 20 -13 37 0 24 -3 28 -10 17 -8 -12 -10 -11 -10 6 0
34 -62 54 -141 47 -35 -3 -97 -7 -136 -7 -40 -1 -73 -4 -73 -8 0 -5 -12 -8
-27 -8 l-28 -1 25 -14 c14 -8 19 -14 13 -15 -49 -1 -60 -15 -67 -80 -5 -40
-11 -60 -21 -60 -10 0 -14 -24 -17 -102 -2 -70 -7 -103 -16 -106 -6 -2 -9 -9
-5 -15 4 -8 1 -7 -9 1 -24 19 -28 -2 -28 -134 0 -69 -4 -114 -10 -114 -5 0
-10 5 -10 10 0 6 -7 10 -16 10 -15 0 -16 -9 -10 -72 4 -40 12 -76 19 -80 9 -6
8 -10 -3 -18 -13 -9 -13 -10 0 -10 13 0 13 -1 0 -10 -15 -9 300 -19 388 -11
l42 3 0 54 c0 30 -4 54 -10 54 -18 0 -11 20 8 21 16 1 16 2 0 6 -22 5 -23 22
-3 29 23 9 -13 39 -43 35 -14 -1 -29 3 -33 11 -7 10 -9 10 -9 1 0 -7 -11 -13
-24 -13 -44 0 -52 38 -46 221 l5 164 340 0 340 0 -1 -166 c-1 -186 -5 -214
-33 -222 -18 -4 -19 -16 -21 -182 0 -98 -3 -182 -6 -187 -3 -4 -16 -8 -30 -8
-19 0 -24 -5 -24 -25 0 -28 -12 -36 -62 -38 -21 -1 -33 -7 -34 -17 -3 -51 -2
-50 -54 -50 l-49 0 6 -30 6 -30 -477 0 -476 0 0 30 c0 29 -2 30 -45 30 -43 0
-45 1 -45 30 0 27 -3 30 -30 30 -28 0 -30 3 -30 35 0 32 -2 35 -30 35 l-30 0
0 150 c0 93 4 150 10 150 6 0 10 7 10 15 0 8 9 19 20 25 17 9 21 20 20 63 -1
69 10 316 16 345 3 13 12 22 23 22 24 0 30 29 29 145 0 140 -1 135 27 135 24
0 25 2 25 75 l0 75 30 0 c27 0 30 3 30 30 0 28 3 30 35 30 33 0 35 2 35 33 0
69 7 77 66 77 43 0 52 3 48 15 -4 8 -4 22 0 30 5 13 66 15 471 15 l465 0 0
-30z m838 -29 c2 -30 -2 -59 -7 -64 -7 -7 -11 -79 -11 -194 0 -115 -4 -183
-10 -183 -5 0 -10 -7 -10 -15 0 -8 -6 -15 -14 -15 -21 0 -25 -20 -27 -135 -1
-96 -3 -105 -20 -105 -18 0 -19 -10 -19 -137 0 -170 -7 -218 -27 -202 -11 10
-11 14 -1 20 10 7 9 9 -4 9 -16 0 -18 -11 -18 -84 l0 -85 123 -3 c67 -2 164
-2 215 0 90 3 92 3 92 27 0 13 -5 36 -12 51 -10 22 -10 28 4 38 13 10 17 31
17 108 1 109 5 128 33 128 18 0 19 7 18 108 -1 59 -1 137 -1 175 1 66 1 67 29
67 l27 0 1 108 c1 135 10 202 30 202 11 0 14 22 14 120 l0 120 233 -2 232 -3
1 -23 c1 -12 -3 -25 -8 -28 -5 -3 -6 -19 -3 -35 5 -21 3 -29 -7 -29 -12 0 -13
-33 -10 -191 4 -210 1 -239 -26 -239 -16 0 -19 -10 -21 -82 -1 -45 -6 -87 -12
-94 -5 -6 -9 -34 -7 -60 3 -72 -12 -167 -29 -179 -11 -8 -16 -48 -20 -179 -6
-158 -7 -168 -27 -176 -12 -5 -18 -9 -15 -9 3 -1 1 -22 -6 -48 -9 -37 -17 -49
-34 -51 -16 -3 -21 -10 -21 -32 0 -25 -4 -29 -32 -32 -29 -3 -33 -7 -36 -35
-3 -32 -5 -33 -48 -33 -42 0 -44 -1 -44 -30 l0 -30 -464 0 -463 0 -6 30 c-6
29 -9 30 -57 30 -49 0 -50 1 -50 29 0 25 -4 30 -27 33 -23 2 -29 8 -31 35 -3
26 -8 32 -30 35 l-27 3 -3 133 c-2 113 0 132 13 132 8 0 15 7 15 15 0 8 7 15
16 15 12 0 14 3 6 13 -7 8 -7 18 -2 27 6 8 10 76 10 150 l0 135 28 17 c19 13
22 18 10 18 -12 0 -15 5 -11 16 4 12 8 13 14 3 13 -22 20 28 19 141 0 58 1
120 3 138 3 17 5 43 6 56 1 19 6 23 26 21 l25 -3 0 140 c0 130 1 140 19 145
15 4 21 17 27 59 l6 54 222 -2 221 -3 3 -54z m1510 6 c3 -45 5 -47 30 -45 25
3 27 0 30 -34 3 -33 7 -38 28 -38 20 0 24 -5 24 -30 0 -27 3 -30 30 -30 29 0
30 -2 30 -45 0 -41 2 -45 24 -45 21 0 24 -5 30 -60 6 -55 9 -60 31 -60 24 0
25 -3 25 -55 0 -54 0 -55 30 -55 30 0 30 -1 30 -53 0 -51 1 -52 35 -63 20 -6
35 -7 35 -2 0 5 4 7 8 4 5 -3 9 -19 10 -37 0 -17 3 -34 6 -37 6 -6 9 40 6 131
-1 51 1 57 19 57 18 0 21 6 22 53 1 90 6 310 8 345 1 25 5 32 21 32 16 0 20
10 26 60 l7 60 216 -2 216 -3 -3 -55 c-2 -30 -8 -58 -15 -62 -8 -5 -12 -60
-12 -189 0 -137 -3 -183 -12 -186 -7 -3 -13 -11 -13 -18 0 -7 -4 -15 -10 -17
-5 -2 -10 -92 -12 -218 -3 -211 -3 -215 -24 -218 -17 -2 -23 -12 -29 -48 -6
-42 -14 -215 -15 -336 0 -53 -2 -58 -25 -64 -27 -7 -28 -9 -25 -136 l1 -68
-195 0 -196 0 0 30 c0 25 -4 30 -25 30 -23 0 -25 4 -25 45 0 45 0 45 -34 45
l-35 0 6 53 5 54 -31 -5 -31 -4 0 55 c0 53 -1 56 -27 59 -26 3 -28 6 -31 60
-3 53 -5 57 -30 60 -21 2 -28 9 -30 30 -2 19 -10 28 -25 30 -17 2 -22 10 -23
33 -2 51 -4 55 -21 55 -15 0 -16 -2 -3 -10 12 -8 11 -10 -8 -10 -18 0 -22 5
-21 23 5 54 -1 79 -21 84 -23 6 -26 19 -7 27 6 3 -7 5 -30 3 -24 -1 -43 1 -43
5 0 5 15 8 33 8 29 1 30 2 15 14 -10 7 -18 19 -18 27 0 11 -2 11 -10 -1 -9
-13 -11 -13 -20 0 -7 10 -10 -25 -10 -112 l0 -127 -30 -33 -30 -32 0 -168 c0
-165 0 -167 -24 -186 -21 -16 -25 -29 -28 -78 l-3 -59 -222 -3 -223 -2 0 90
c0 82 2 90 19 90 18 0 19 10 21 178 1 229 1 226 25 232 19 6 20 15 22 133 l1
127 -26 0 c-20 0 -23 3 -12 9 8 6 18 8 22 5 4 -3 10 8 14 23 10 49 13 53 34
53 17 0 20 6 20 40 0 31 -4 40 -17 41 -17 1 -17 2 0 6 15 4 17 20 17 149 0
121 2 144 15 144 8 0 15 5 15 10 0 6 -4 10 -10 10 -5 0 -10 5 -10 10 0 6 7 10
16 10 8 0 12 5 9 10 -3 6 1 10 9 10 12 0 15 11 15 48 -1 26 -1 80 0 120 l1 72
233 -2 232 -3 3 -48z m-11628 -152 c0 -18 -5 -25 -20 -25 -15 0 -20 7 -20 25
0 18 5 25 20 25 15 0 20 -7 20 -25z m3215 -245 c3 -5 1 -10 -4 -10 -6 0 -11 5
-11 10 0 6 2 10 4 10 3 0 8 -4 11 -10z m4680 0 c3 -5 1 -10 -4 -10 -6 0 -11 5
-11 10 0 6 2 10 4 10 3 0 8 -4 11 -10z m-902 -7 c-7 -2 -19 -2 -25 0 -7 3 -2
5 12 5 14 0 19 -2 13 -5z m640 0 c-7 -2 -19 -2 -25 0 -7 3 -2 5 12 5 14 0 19
-2 13 -5z m1144 1 c-3 -3 -12 -4 -19 -1 -8 3 -5 6 6 6 11 1 17 -2 13 -5z
m-5612 -62 c-3 -3 -11 0 -18 7 -9 10 -8 11 6 5 10 -3 15 -9 12 -12z m6192 -8
c-3 -3 -12 -4 -19 -1 -8 3 -5 6 6 6 11 1 17 -2 13 -5z m-111 -41 c-10 -11 -36
-12 -36 -2 0 5 10 9 22 9 12 0 18 -3 14 -7z m1844 -73 c0 -11 -4 -20 -8 -20
-4 0 -8 9 -9 20 -1 11 2 20 8 20 5 0 9 -9 9 -20z m500 -289 c-20 -4 -41 -11
-48 -15 -7 -4 -12 -1 -12 8 0 13 11 16 48 15 45 -1 46 -2 12 -8z m-9333 -67
c-3 -3 -12 -4 -19 -1 -8 3 -5 6 6 6 11 1 17 -2 13 -5z m180 -10 c-3 -3 -12 -4
-19 -1 -8 3 -5 6 6 6 11 1 17 -2 13 -5z m1626 -21 c-7 -2 -19 -2 -25 0 -7 3
-2 5 12 5 14 0 19 -2 13 -5z m-1560 -10 c-7 -2 -19 -2 -25 0 -7 3 -2 5 12 5
14 0 19 -2 13 -5z m-1688 -123 c0 -20 -5 -25 -25 -25 -20 0 -26 6 -28 28 -3
26 -1 28 25 25 22 -2 28 -8 28 -28z m3955 9 c0 -6 -7 -9 -15 -5 -8 3 -15 1
-15 -4 0 -6 -5 -10 -11 -10 -8 0 -8 5 1 15 15 17 40 20 40 4z m-4990 -303 c0
-19 -4 -22 -25 -18 -16 3 -25 11 -25 23 0 14 7 19 25 19 20 0 25 -5 25 -24z
m4140 -816 c0 -28 -2 -30 -41 -30 -38 0 -40 -2 -39 -27 1 -16 2 -72 1 -126
l-1 -98 -27 3 -28 3 -3 123 -3 122 -39 0 c-38 0 -40 2 -40 30 l0 30 110 0 110
0 0 -30z m106 13 c1 -7 2 -60 3 -118 l1 -105 60 0 60 0 0 120 0 120 30 0 30 0
0 -124 c0 -113 -2 -124 -19 -129 -11 -2 -21 -15 -23 -28 -3 -23 -7 -24 -78
-24 -71 0 -74 1 -80 25 -4 16 -14 26 -28 28 -21 3 -22 7 -22 128 l0 125 33 -3
c17 -2 33 -9 33 -15z m465 -5 c7 -13 17 -26 24 -30 6 -4 12 -28 13 -53 2 -44
1 -45 -28 -45 -20 0 -30 -5 -30 -15 0 -8 -9 -15 -20 -15 -11 0 -20 -4 -20 -10
0 -5 11 -10 24 -10 18 0 25 -6 28 -22 2 -15 11 -24 26 -26 19 -3 23 -9 20 -30
-2 -22 -9 -28 -35 -30 -31 -3 -33 -1 -33 27 0 28 -3 31 -30 31 -25 0 -30 4
-30 25 0 21 -5 25 -29 25 -28 0 -30 -2 -36 -55 -7 -52 -9 -55 -36 -55 -26 0
-29 4 -30 33 -1 31 -1 223 0 260 1 15 13 17 106 17 98 0 105 -1 116 -22z m159
-3 c0 -18 5 -25 19 -25 12 0 20 -9 24 -29 4 -17 14 -30 27 -34 11 -3 20 -9 19
-14 -4 -21 2 -33 16 -33 12 0 15 14 16 63 1 34 1 70 0 80 -2 13 5 17 34 17
l36 0 -3 -152 -3 -153 -30 0 c-28 0 -30 3 -30 35 1 30 -3 36 -25 40 -16 3 -26
13 -28 28 -2 13 -10 22 -22 22 -11 0 -20 10 -24 25 -13 51 -25 23 -28 -62 l-3
-88 -30 0 -30 0 -3 153 -3 152 36 0 c31 0 35 -3 35 -25z m680 0 c0 -20 5 -25
25 -25 23 0 25 -4 25 -40 0 -36 -2 -40 -25 -40 -15 0 -25 -6 -25 -15 0 -8 11
-17 25 -21 21 -5 25 -12 25 -45 0 -35 -3 -39 -24 -39 -19 0 -25 -6 -28 -27
l-3 -28 -95 0 -95 0 -3 153 -3 152 101 0 100 0 0 -25z m308 -2 c2 -15 10 -23
23 -23 21 0 21 -1 21 -140 0 -128 2 -122 -29 -118 -25 3 -28 8 -31 44 -3 46
-15 54 -84 54 l-37 0 -3 -47 c-3 -46 -4 -48 -33 -48 l-29 0 -2 128 -2 127 29
0 c24 0 29 4 29 25 0 26 1 26 73 23 66 -3 72 -5 75 -25z m352 -3 l0 -30 -96 0
-95 0 3 -27 c3 -27 5 -28 71 -31 57 -2 67 -6 65 -20 -2 -9 8 -22 25 -30 21
-10 27 -20 27 -47 0 -29 -4 -34 -27 -37 -22 -2 -29 -9 -31 -30 l-3 -28 -95 0
-94 0 0 29 c0 28 3 30 53 36 28 3 70 5 92 3 39 -3 40 -2 43 30 l3 32 -65 0
c-59 0 -65 2 -68 22 -2 14 -12 24 -28 28 -20 5 -26 13 -28 43 -3 35 -2 37 27
37 26 0 31 4 31 25 0 25 0 25 95 25 l95 0 0 -30z m260 0 l0 -30 -70 0 c-68 0
-70 -1 -70 -25 0 -22 4 -25 34 -25 18 0 48 -3 65 -6 26 -6 31 -11 31 -35 0
-29 0 -29 -65 -29 -65 0 -65 0 -65 -29 0 -33 17 -41 93 -41 47 0 48 -1 45 -27
l-3 -28 -100 0 -100 0 -3 153 -3 152 106 0 105 0 0 -30z m246 15 c9 -8 13 -19
9 -24 -3 -5 5 -11 17 -13 20 -3 22 -9 25 -96 l4 -93 -30 -12 c-18 -6 -31 -19
-33 -32 -3 -18 -11 -20 -95 -23 l-92 -3 -3 43 c-2 24 -2 94 0 156 l3 112 90 0
c67 0 94 -4 105 -15z m524 -15 c0 -28 -3 -30 -35 -30 l-36 0 2 -72 c1 -40 1
-97 0 -125 -1 -52 -2 -53 -31 -53 l-30 0 0 125 0 125 -45 0 c-43 0 -45 1 -45
30 l0 30 110 0 110 0 0 -30z m240 5 c0 -21 5 -25 30 -25 l31 0 -3 -127 -3
-128 -30 0 c-29 0 -30 2 -30 45 l0 45 -62 2 -62 2 -3 -47 c-3 -45 -4 -47 -33
-47 l-30 0 0 125 0 125 28 3 c21 3 27 9 27 28 0 23 3 24 70 24 68 0 70 -1 70
-25z m302 3 c2 -17 11 -24 31 -26 24 -3 28 -7 25 -30 -2 -21 -9 -28 -30 -30
-24 -3 -28 0 -28 22 0 25 -2 26 -65 26 l-66 0 3 -92 3 -93 63 -3 62 -3 0 31
c0 28 3 31 28 28 22 -2 27 -8 28 -30 1 -23 -3 -28 -22 -28 -14 0 -25 -6 -25
-15 -1 -8 -2 -21 -3 -27 -1 -9 -24 -14 -73 -16 l-72 -3 -3 28 c-2 22 -9 29
-30 31 l-28 3 0 100 0 99 30 0 c25 0 30 4 30 25 0 24 2 25 69 25 65 0 70 -2
73 -22z m328 -8 c0 -28 -2 -30 -40 -30 l-40 0 0 -126 0 -125 -32 3 c-37 3 -35
-5 -37 151 l-1 97 -40 0 c-38 0 -40 2 -40 30 l0 30 115 0 115 0 0 -30z m216 3
c-2 -22 -9 -29 -30 -31 -26 -3 -26 -4 -26 -93 l0 -89 31 -7 c25 -5 30 -10 27
-32 -3 -25 -5 -26 -86 -29 l-83 -3 3 33 c2 26 8 34 26 36 23 4 24 6 20 90 -3
87 -3 87 -31 90 -23 3 -27 8 -27 33 l0 29 89 0 90 0 -3 -27z m254 2 c0 -20 5
-25 25 -25 21 0 25 -5 25 -31 0 -28 -2 -30 -32 -27 -25 2 -34 8 -36 26 -3 20
-9 22 -63 22 l-60 0 3 -92 3 -93 60 0 c55 0 60 2 63 23 3 17 10 22 33 22 27 0
30 -3 27 -27 -2 -20 -9 -28 -23 -28 -14 0 -21 -8 -23 -28 l-3 -28 -72 3 c-70
3 -72 4 -75 31 -3 21 -9 27 -28 27 -24 0 -24 1 -24 100 l0 100 25 0 c20 0 25
5 25 25 0 24 2 25 75 25 73 0 75 -1 75 -25z m300 0 c0 -20 5 -25 25 -25 l25 0
0 -130 0 -130 -30 0 c-29 0 -30 2 -30 45 l0 45 -65 0 -65 0 0 -46 c0 -44 -1
-45 -27 -42 l-28 3 -3 128 -3 127 32 0 c24 0 30 3 25 16 -11 28 3 34 75 34 67
0 69 -1 69 -25z m170 -94 l0 -119 66 -7 c63 -7 65 -8 62 -34 -3 -26 -4 -26
-95 -29 l-93 -3 -1 43 c-1 45 -1 66 0 191 l1 77 30 0 30 0 0 -119z m580 94 c0
-20 5 -25 25 -25 l26 0 -3 -127 -3 -128 -30 0 c-28 0 -30 3 -33 43 l-3 42 -59
0 -59 0 -3 -42 c-3 -39 -6 -43 -30 -46 -30 -4 -32 4 -31 113 2 148 1 145 28
145 20 0 25 5 25 25 0 24 2 25 75 25 73 0 75 -1 75 -25z m320 1 c0 -18 6 -26
22 -28 18 -2 22 -9 21 -38 -1 -57 -2 -60 -23 -60 -11 0 -29 -9 -40 -20 -17
-17 -18 -21 -5 -26 8 -4 15 -15 15 -25 0 -18 10 -23 38 -20 7 1 12 -11 12 -34
0 -35 -1 -36 -32 -33 -27 2 -34 8 -36 30 -3 21 -9 27 -30 30 -19 2 -28 10 -30
26 -3 17 -10 22 -32 22 -28 0 -29 -2 -32 -52 -3 -51 -4 -53 -33 -53 l-30 0 -3
153 -3 152 111 0 c110 0 110 0 110 -24z m300 -6 l0 -30 -70 0 -71 0 4 -27 c2
-19 10 -28 23 -29 10 0 40 -1 67 -2 45 -2 47 -3 47 -32 l0 -30 -71 0 -70 0 3
-32 c2 -18 9 -34 16 -34 6 -1 37 -2 67 -3 54 -1 55 -1 55 -31 l0 -31 -102 3
-103 3 -2 153 -1 152 104 0 104 0 0 -30z m120 6 c0 -18 6 -25 23 -28 12 -2 23
-9 23 -15 1 -7 2 -22 3 -33 1 -13 8 -20 21 -20 13 0 20 -7 20 -20 0 -11 7 -20
15 -20 12 0 15 16 15 80 l0 80 33 0 32 0 0 -153 0 -152 -30 0 c-27 0 -30 3
-33 38 -3 29 -7 37 -23 37 -13 0 -19 7 -19 24 0 17 -7 26 -24 30 -14 3 -28 15
-31 26 -9 29 -25 24 -26 -7 -4 -160 -1 -148 -36 -151 l-33 -3 0 155 0 156 35
0 c30 0 35 -3 35 -24z m445 -1 c0 -13 8 -21 23 -23 22 -3 22 -6 22 -133 l0
-129 -29 0 c-28 0 -30 2 -33 48 -2 26 -6 46 -10 45 -5 -2 -30 -3 -57 -3 l-50
0 -3 -42 c-3 -40 -5 -43 -35 -46 l-33 -3 0 130 0 131 30 0 c28 0 30 2 24 25
l-6 26 78 -3 c71 -3 79 -5 79 -23z m-9185 -83 c0 -25 -3 -28 -27 -24 -22 3
-28 9 -28 28 0 20 5 24 28 24 23 0 27 -4 27 -28z m3660 -52 l0 -30 -84 0 c-47
0 -87 4 -90 8 -3 5 -2 18 1 30 5 20 12 22 89 22 l84 0 0 -30z m-4140 -55 c0
-17 -5 -25 -17 -24 -11 0 -13 3 -5 6 20 8 14 23 -10 24 -22 0 -22 1 -3 9 31
13 35 12 35 -15z m810 -515 c0 -27 -3 -30 -30 -30 -27 0 -30 3 -30 30 0 27 3
30 30 30 27 0 30 -3 30 -30z m5225 -120 l0 -75 -30 -2 c-16 -1 -51 1 -77 4
l-48 6 0 74 0 74 78 -3 77 -3 0 -75z m-3975 -335 c0 -24 3 -25 55 -25 l55 0 0
-35 c0 -32 -2 -35 -30 -35 -19 0 -33 6 -37 16 -5 13 -17 14 -69 8 l-64 -6 0
51 0 51 45 0 c41 0 45 -2 45 -25z m1850 -17 c0 -26 -3 -29 -27 -26 -17 2 -29
10 -31 21 -6 32 5 45 32 40 21 -4 26 -11 26 -35z m2278 5 c3 -31 1 -33 -27
-33 -29 0 -31 3 -31 36 0 33 2 35 28 32 22 -2 28 -8 30 -35z m-878 -53 c0 -28
-3 -30 -35 -30 -32 0 -35 2 -35 30 0 28 3 30 35 30 32 0 35 -2 35 -30z m-3410
-20 c0 -20 -5 -30 -15 -30 -12 0 -15 -13 -15 -55 0 -53 -1 -55 -26 -55 -25 0
-26 -2 -20 -39 l6 -40 -44 -6 c-59 -9 -80 -4 -84 22 -2 14 -12 23 -25 25 -20
3 -22 10 -25 75 l-3 72 28 3 c20 2 28 9 29 23 1 11 2 23 3 28 1 4 44 7 96 7
l95 0 0 -30z m4525 1 c-3 -5 -1 -12 4 -16 18 -10 0 -35 -25 -35 -20 0 -24 5
-24 30 0 26 4 30 26 30 14 0 23 -4 19 -9z m-4165 -56 c0 -8 -9 -15 -20 -15
-11 0 -20 7 -20 15 0 8 9 15 20 15 11 0 20 -7 20 -15z m4457 -90 c-4 -31 -31
-55 -61 -55 -23 0 -26 4 -26 38 0 21 2 41 4 43 3 3 23 3 46 1 35 -4 40 -7 37
-27z m-1187 17 c0 -2 -7 -11 -16 -19 -10 -10 -13 -25 -9 -41 4 -15 1 -28 -6
-33 -18 -11 -39 1 -39 22 0 11 -7 22 -15 25 -8 4 -15 16 -15 28 0 19 5 21 50
21 27 0 50 -1 50 -3z m850 -47 l0 -55 -35 0 -35 0 0 55 0 55 35 0 35 0 0 -55z
m-4182 39 c17 -5 22 -14 22 -41 0 -27 -4 -33 -17 -31 -11 2 -18 -3 -18 -12 0
-8 10 -16 23 -18 15 -2 22 2 22 12 0 10 9 16 25 16 20 0 25 -5 26 -27 0 -16 2
-54 4 -85 3 -55 2 -57 -23 -60 -21 -2 -28 -9 -30 -30 l-3 -28 -87 0 c-122 0
-162 8 -162 31 0 14 -7 19 -30 19 l-30 0 0 84 0 85 28 3 c24 3 27 7 30 46 l3
42 97 0 c53 0 107 -3 120 -6z m3882 -29 c0 -8 -4 -15 -10 -15 -5 0 -10 7 -10
15 0 8 5 15 10 15 6 0 10 -7 10 -15z m-1362 -38 c3 -26 1 -27 -42 -27 -45 0
-46 1 -46 31 0 30 1 30 43 27 37 -3 42 -7 45 -31z m6028 -44 c1 -7 2 -20 3
-28 1 -9 11 -15 26 -15 24 0 25 -3 25 -60 0 -57 -1 -60 -25 -60 -27 0 -29 7
-25 83 l2 37 -55 0 c-53 0 -55 -1 -59 -30 -3 -16 -3 -43 0 -60 4 -29 7 -30 53
-30 52 0 61 -6 53 -37 -4 -16 -15 -20 -54 -22 -46 -2 -49 -1 -52 26 -2 20 -9
29 -25 31 -21 3 -23 9 -23 63 0 56 -1 59 -25 59 -21 0 -25 5 -25 28 l0 27 102
0 c75 0 103 -3 104 -12z m-426 -18 c0 -22 -4 -25 -35 -25 -31 0 -35 3 -35 25
0 22 4 25 35 25 31 0 35 -3 35 -25z m-3690 -95 l0 -70 -34 0 c-21 0 -36 -6
-40 -15 -3 -8 -17 -15 -31 -15 -25 0 -25 1 -25 85 l0 85 65 0 65 0 0 -70z
m-601 20 c38 0 51 -4 51 -14 0 -8 14 -24 30 -36 26 -19 35 -20 62 -11 39 14
113 14 139 1 10 -6 19 -20 19 -30 0 -11 5 -20 10 -20 6 0 10 -7 10 -15 0 -9 6
-12 15 -9 8 4 15 1 15 -6 0 -6 5 -8 10 -5 6 4 17 1 25 -5 12 -10 15 -9 15 4 0
9 6 16 14 16 17 0 66 -48 67 -66 1 -8 2 -22 2 -31 1 -10 9 -25 19 -34 23 -21
23 -29 1 -29 -15 0 -16 -2 -3 -10 24 -15 29 -12 32 23 2 27 8 33 31 35 27 3
27 3 27 -57 0 -54 -2 -60 -22 -63 -15 -2 -23 -11 -25 -30 -3 -26 -1 -28 34
-29 64 -2 78 -10 81 -49 1 -19 7 -37 13 -38 6 -3 5 -10 -2 -19 -10 -12 -10
-16 2 -24 8 -5 9 -9 3 -9 -7 0 -14 -9 -17 -20 -3 -14 -14 -20 -31 -20 -19 0
-26 -5 -26 -20 0 -11 -5 -20 -11 -20 -5 0 -9 -8 -7 -18 2 -11 -3 -26 -11 -35
-8 -10 -9 -17 -3 -17 13 0 -3 -63 -18 -68 -20 -7 -9 -21 18 -24 21 -2 28 -9
30 -30 2 -20 9 -28 29 -30 39 -4 42 -28 4 -28 -21 0 -31 5 -31 15 0 10 -11 15
-35 15 -19 0 -35 5 -35 11 0 7 -10 9 -26 5 -20 -5 -27 -3 -31 13 -6 23 -42 21
-55 -3 -5 -9 -15 -13 -23 -9 -9 3 -22 0 -29 -6 -11 -9 -15 -9 -18 0 -3 9 -9 9
-22 2 -13 -7 -15 -13 -7 -17 16 -10 14 -26 -4 -26 -9 0 -12 -6 -9 -15 4 -8 1
-15 -5 -15 -6 0 -11 -6 -11 -14 0 -14 -50 -52 -51 -39 0 5 -4 -2 -9 -14 -7
-17 -18 -23 -39 -23 -16 0 -31 -6 -35 -15 -3 -8 -14 -15 -25 -15 -10 0 -21 -9
-24 -20 -4 -17 -14 -20 -71 -20 -58 0 -66 2 -66 18 0 11 -10 24 -22 30 -13 6
-17 11 -10 11 24 2 1 21 -24 21 -13 0 -24 5 -24 10 0 6 -7 10 -15 10 -8 0 -15
5 -15 11 0 6 7 9 15 5 8 -3 15 -1 15 4 0 6 -15 10 -34 10 -19 0 -38 5 -41 10
-4 6 -10 8 -15 5 -4 -3 -13 2 -20 10 -7 8 -16 12 -21 9 -5 -3 -9 -1 -9 4 0 5
-14 15 -32 23 -17 7 -26 15 -19 17 30 10 -15 20 -62 15 l-49 -6 4 29 c2 21 8
28 21 26 9 -2 17 3 17 11 0 8 6 17 14 20 9 4 14 19 13 42 -1 30 -5 37 -26 41
-54 12 -83 27 -69 35 9 6 6 9 -9 9 -19 0 -23 6 -23 29 0 23 5 31 23 34 12 2 3
5 -20 6 -36 1 -43 4 -43 21 0 15 7 20 24 20 30 0 42 16 27 34 -9 10 -8 15 3
19 8 3 13 16 12 31 -2 17 3 26 16 30 11 2 17 9 14 14 -3 5 6 21 21 36 14 14
21 26 15 26 -17 0 -1 40 17 41 14 0 14 1 0 11 -14 10 -13 13 6 34 12 13 33 24
46 24 17 0 20 3 10 9 -9 6 -3 10 20 14 42 6 120 36 97 37 -26 0 -33 21 -13 36
10 8 16 17 12 20 -4 4 1 13 11 20 15 12 15 15 2 24 -9 6 -10 10 -3 10 6 0 13
15 15 33 3 28 7 32 36 35 17 2 32 8 32 13 0 6 7 6 19 -1 11 -5 42 -10 70 -10z
m-344 -20 c0 -23 -59 -20 -63 3 -3 15 2 18 30 15 21 -2 33 -8 33 -18z m-1170
-41 c-7 -11 -35 -12 -35 -1 0 4 9 8 20 9 11 1 18 -2 15 -8z m795 -34 c0 -33
-2 -35 -35 -35 -33 0 -35 2 -35 35 0 33 2 35 35 35 33 0 35 -2 35 -35z m-3663
-63 c-2 -75 -3 -77 -27 -77 -25 0 -25 -1 -25 -83 -1 -55 -5 -86 -13 -91 -8 -5
-12 -29 -11 -67 2 -103 1 -114 -19 -114 -15 0 -21 -12 -29 -56 -9 -52 -8 -57
8 -61 11 -3 19 -14 19 -24 0 -18 15 -19 385 -19 378 0 385 0 385 20 0 15 7 20
25 20 23 0 25 4 25 48 0 26 3 64 6 85 l7 37 -67 0 c-51 0 -66 3 -66 14 0 20
19 24 140 27 151 4 172 4 418 1 215 -2 222 -3 222 -22 0 -19 -7 -20 -135 -20
-113 0 -135 -2 -135 -15 0 -8 -9 -15 -20 -15 -17 0 -20 -7 -20 -47 0 -27 -3
-58 -6 -70 -5 -19 -2 -23 15 -23 14 0 21 -6 21 -20 0 -20 7 -20 395 -20 388 0
395 0 395 20 0 13 7 20 20 20 18 0 20 7 20 85 l0 85 -240 0 -240 0 0 26 0 26
108 -3 c59 -2 113 0 121 5 7 5 72 10 144 11 145 4 133 -3 144 80 3 22 13 51
23 65 9 14 20 42 24 63 6 33 5 37 -14 37 -13 0 -20 7 -20 19 0 17 -10 20 -72
25 -40 4 -216 5 -390 4 -309 -3 -317 -4 -320 -23 -2 -12 -12 -21 -25 -23 -19
-3 -23 -10 -23 -43 l0 -39 180 0 180 0 0 30 c0 30 0 30 56 30 l56 0 -4 -30
c-4 -25 -1 -30 16 -30 41 0 66 -12 66 -31 0 -23 -34 -59 -55 -59 -8 0 -15 -8
-15 -19 0 -15 -9 -18 -60 -20 -36 -1 -60 3 -60 9 0 5 -13 10 -30 10 -25 0 -30
4 -30 24 0 20 -6 24 -46 30 -26 3 -228 6 -450 6 l-404 0 0 25 0 25 135 0 c133
0 135 0 135 23 0 12 3 32 6 45 5 18 2 22 -15 22 -15 0 -21 5 -19 18 2 14 -5
17 -42 17 -150 2 -160 3 -160 29 0 30 20 36 131 36 115 0 149 -7 149 -32 0
-12 6 -18 18 -16 14 2 18 -6 20 -45 2 -33 -2 -52 -12 -63 -9 -8 -16 -20 -16
-25 0 -5 45 -9 100 -9 l99 0 3 68 c3 60 5 67 25 70 14 2 23 11 25 25 l3 22
415 3 c460 3 500 1 500 -29 0 -12 7 -19 20 -19 19 0 20 -7 20 -95 0 -88 -1
-95 -20 -95 -18 0 -20 -7 -20 -55 0 -64 -18 -59 184 -56 115 2 131 4 143 21 9
12 31 21 68 25 30 4 53 11 50 15 -3 5 8 11 25 15 16 4 30 13 30 21 0 15 26 17
250 16 145 -1 250 -10 250 -22 0 -4 11 -11 25 -14 14 -4 25 -11 25 -16 0 -6
11 -10 25 -10 19 0 29 -8 39 -31 7 -17 16 -30 19 -30 31 3 37 -1 37 -29 0 -25
-4 -30 -25 -30 -18 0 -26 -7 -31 -25 -4 -18 -13 -25 -31 -25 -16 0 -27 -7 -30
-20 -8 -29 -61 -40 -205 -40 -70 0 -129 -4 -132 -9 -3 -4 -28 -11 -56 -15 -56
-7 -129 2 -110 14 7 4 -12 10 -43 14 -41 5 -56 12 -60 25 -2 10 -17 21 -33 25
-16 4 -31 11 -34 14 -3 4 -18 14 -35 24 -24 13 -62 16 -187 17 -153 2 -158 1
-158 -19 0 -13 -7 -20 -20 -20 -17 0 -19 -8 -22 -87 -3 -84 -4 -87 -28 -93
-16 -4 -25 -13 -25 -25 0 -20 -10 -20 -465 -20 l-465 0 3 23 c3 21 0 23 -25
20 -21 -2 -27 1 -24 12 2 8 6 59 9 113 l4 97 -76 0 c-57 0 -76 -3 -76 -13 0
-8 -11 -19 -25 -25 -24 -11 -25 -16 -25 -97 0 -83 0 -85 -24 -85 -18 0 -25 -6
-28 -22 l-3 -23 -452 0 -453 0 0 23 c0 16 -6 22 -23 22 l-23 0 11 96 c9 86 12
98 33 105 21 8 22 14 22 100 0 82 2 91 20 96 21 6 22 8 24 123 1 63 2 65 29
68 25 3 27 7 27 46 0 49 4 56 30 49 16 -4 18 -14 17 -81z m2613 63 c0 -21 -5
-25 -30 -25 -25 0 -30 4 -30 25 0 21 5 25 30 25 25 0 30 -4 30 -25z m6210 -24
c0 -24 -4 -31 -19 -31 -25 0 -34 -14 -26 -40 9 -27 49 -21 53 9 3 15 8 21 19
17 8 -3 19 -6 24 -6 5 0 9 -36 9 -79 0 -79 0 -80 -27 -83 -22 -2 -29 -9 -31
-30 l-3 -28 -120 0 -119 0 0 30 c0 26 -4 30 -27 30 l-28 0 -1 85 0 85 28 0
c24 0 28 4 28 28 0 16 2 31 5 33 2 3 56 6 120 8 l115 3 0 -31z m-9122 -28 c2
-15 10 -23 24 -23 22 0 22 4 -3 -122 -10 -51 -18 -68 -30 -68 -17 0 -29 -70
-29 -172 0 -47 -1 -49 -26 -46 -24 3 -26 0 -30 -42 -10 -106 -18 -135 -39
-135 -12 0 -21 -9 -25 -25 l-6 -25 -459 0 -460 0 2 23 c2 16 -2 22 -18 22 -19
0 -20 4 -15 33 3 17 9 56 12 85 5 41 11 52 25 52 16 0 18 8 17 64 -2 50 2 69
16 85 12 13 17 31 14 58 -3 33 0 38 19 41 17 3 24 12 28 40 3 20 10 45 16 54
5 10 9 27 9 38 0 12 17 37 38 56 l37 34 440 -2 440 -3 3 -22z m5492 -23 c12
-8 11 -10 -7 -10 -13 0 -23 5 -23 10 0 13 11 13 30 0z m400 -170 c0 -28 -3
-30 -35 -30 -32 0 -35 2 -35 30 0 28 3 30 35 30 32 0 35 -2 35 -30z m2473 -60
c30 0 38 -3 27 -10 -12 -8 -12 -10 3 -16 10 -4 23 -2 30 5 8 8 7 11 -3 12 -44
4 79 18 156 18 l91 1 -5 -25 c-4 -25 -6 -25 -100 -25 -90 0 -118 7 -56 14 49
6 50 9 9 15 -49 8 -65 4 -58 -15 4 -12 -15 -14 -112 -14 -103 0 -116 2 -105
15 7 8 9 16 4 16 -5 1 5 5 21 9 17 4 36 6 43 4 8 -2 32 -4 55 -4z m-383 -20
c0 -15 -7 -20 -26 -20 -19 0 -25 4 -21 14 4 10 -3 16 -21 19 -16 2 -8 5 21 6
41 1 47 -2 47 -19z m47 14 c-3 -3 -12 -4 -19 -1 -8 3 -5 6 6 6 11 1 17 -2 13
-5z m71 -1 c-10 -2 -26 -2 -35 0 -10 3 -2 5 17 5 19 0 27 -2 18 -5z m-6950
-15 c-3 -7 -16 -15 -31 -19 -22 -6 -27 -4 -27 12 0 15 7 19 31 19 19 0 29 -4
27 -12z m244 -23 c-4 -31 -8 -35 -33 -35 -26 0 -29 3 -29 35 0 33 2 35 33 35
32 0 33 -1 29 -35z m4256 -37 l3 -58 -66 0 -65 0 0 53 c0 30 3 57 7 61 4 4 32
6 63 4 l55 -3 3 -57z m904 35 c2 -19 10 -29 27 -33 20 -5 24 -12 28 -58 3 -42
1 -52 -11 -53 -9 -1 -21 -2 -28 -3 -6 0 -12 -9 -14 -19 -1 -11 -5 -21 -8 -24
-3 -3 -57 -8 -119 -11 l-114 -5 -7 27 c-5 19 -13 26 -31 26 -24 0 -25 3 -25
59 0 58 1 60 28 63 21 2 28 9 30 31 l3 27 119 0 119 0 3 -27z m47 -5 c0 -16
-2 -18 -6 -8 -3 8 -11 18 -17 22 -7 5 -4 8 7 8 11 0 17 -7 16 -22z m1494 15
c-7 -2 -19 -2 -25 0 -7 3 -2 5 12 5 14 0 19 -2 13 -5z m-4073 -68 c0 -33 -2
-35 -35 -35 -33 0 -35 2 -35 35 0 33 2 35 35 35 33 0 35 -2 35 -35z m2710 -30
c0 -51 -2 -55 -23 -55 -14 0 -23 6 -25 18 -1 9 -4 34 -8 55 -6 36 -5 37 25 37
31 0 31 0 31 -55z m190 31 c0 -23 -4 -24 -61 -28 -34 -1 -63 0 -64 3 -2 3 -1
15 2 27 5 19 12 22 64 22 56 0 59 -1 59 -24z m248 -3 c-3 -28 -3 -28 -90 -31
l-88 -3 0 31 0 30 91 0 90 0 -3 -27z m178 5 c-3 -13 -6 -26 -6 -30 0 -5 -25
-8 -55 -8 -54 0 -55 0 -55 30 l0 30 61 0 c59 0 61 -1 55 -22z m94 -3 c0 -16
-6 -25 -15 -25 -9 0 -15 9 -15 25 0 16 6 25 15 25 9 0 15 -9 15 -25z m-7013
-17 c-3 -7 -5 -2 -5 12 0 14 2 19 5 13 2 -7 2 -19 0 -25z m9063 12 c0 -11 -4
-20 -9 -20 -5 0 -7 9 -4 20 3 11 7 20 9 20 2 0 4 -9 4 -20z m17 -22 c-3 -8 -6
-5 -6 6 -1 11 2 17 5 13 3 -3 4 -12 1 -19z m-1397 -22 c0 -32 -33 -48 -44 -21
-3 8 -10 15 -16 15 -5 0 -10 -7 -10 -15 0 -23 -47 -19 -53 5 -5 18 0 20 59 20
35 0 64 -2 64 -4z m226 -16 c0 -17 -7 -20 -48 -20 -41 0 -48 3 -48 20 0 17 7
20 48 20 41 0 48 -3 48 -20z m144 0 c0 -18 -7 -20 -63 -20 -56 0 -63 2 -64 20
-2 18 4 20 63 20 57 0 64 -2 64 -20z m800 -50 c0 -11 -7 -20 -15 -20 -9 0 -15
-9 -15 -21 0 -19 5 -21 45 -17 26 2 45 -1 45 -7 0 -6 -21 -9 -50 -7 l-50 4 0
44 c0 37 3 44 20 44 13 0 20 -7 20 -20z m48 -37 c-10 -2 -26 -2 -35 0 -10 3
-2 5 17 5 19 0 27 -2 18 -5z m-3748 -52 c0 -4 -11 -6 -25 -3 -14 2 -25 6 -25
8 0 2 11 4 25 4 14 0 25 -4 25 -9z m-1444 -206 c0 -99 3 -96 -85 -93 l-76 3
-3 64 c-4 93 -5 92 85 89 l78 -3 1 -60z m-316 30 c0 -20 -5 -25 -25 -25 -14 0
-25 4 -25 9 0 5 -3 16 -6 25 -5 13 1 16 25 16 26 0 31 -4 31 -25z m1626 -17
c3 -5 3 -31 -1 -58 l-7 -50 -48 0 -47 0 -6 51 c-4 29 -4 56 -1 61 7 11 103 8
110 -4z m-1046 -68 c0 -5 -7 -10 -15 -10 -8 0 -15 5 -15 10 0 6 7 10 15 10 8
0 15 -4 15 -10z m750 0 c0 -5 -13 -10 -30 -10 -16 0 -30 5 -30 10 0 6 14 10
30 10 17 0 30 -4 30 -10z m-5467 -7 c57 -5 67 -8 67 -24 0 -14 7 -19 25 -19
28 0 30 -9 14 -60 -6 -19 -14 -60 -17 -90 -6 -47 -10 -55 -29 -58 -21 -3 -23
-8 -23 -76 0 -54 -4 -77 -16 -86 -10 -9 -14 -26 -12 -49 3 -30 0 -36 -17 -36
-14 0 -21 -7 -22 -25 -2 -14 -8 -55 -15 -92 -10 -61 -14 -68 -35 -68 -18 0
-23 -5 -23 -25 l0 -25 -481 0 -480 0 3 23 c2 17 -2 23 -24 25 -25 3 -26 5 -17
35 5 18 9 53 9 79 0 42 3 48 25 54 22 5 25 12 25 49 0 32 7 52 25 73 15 18 23
37 19 46 -3 9 -1 22 5 30 6 7 14 35 18 62 4 32 14 56 28 70 16 15 25 38 30 82
6 56 9 62 30 62 14 0 25 7 28 19 3 12 16 21 33 24 45 7 751 7 827 0z m1030 0
c240 -6 257 -7 257 -25 0 -13 7 -18 26 -18 25 0 26 -2 20 -37 -3 -21 -9 -67
-12 -102 -5 -49 -11 -65 -25 -68 -14 -4 -18 -22 -24 -109 -6 -91 -10 -107 -29
-119 -13 -10 -21 -27 -22 -48 -1 -17 -5 -60 -9 -94 -7 -57 -10 -63 -31 -63
-19 0 -24 -5 -24 -25 l0 -25 -489 0 c-477 0 -489 0 -484 19 4 15 -1 20 -19 23
-23 3 -25 10 -13 58 3 14 8 46 12 73 3 26 11 47 17 47 11 0 31 75 39 145 2 17
9 43 15 58 7 16 12 37 12 49 0 11 8 22 20 25 17 4 20 14 20 54 0 27 5 69 12
94 10 37 16 45 35 45 16 0 23 6 23 20 0 17 8 20 68 23 134 7 354 7 605 0z
m1271 -3 c223 0 228 0 223 -20 -4 -16 0 -20 20 -20 l24 0 -7 -97 c-7 -102 -8
-108 -27 -108 -8 0 -13 -34 -15 -107 -2 -98 -4 -108 -21 -108 -14 0 -21 -10
-26 -38 -3 -21 -5 -43 -4 -48 1 -5 1 -37 0 -71 -1 -60 -2 -63 -26 -63 -20 0
-25 -5 -25 -25 l0 -25 -486 0 c-477 0 -486 0 -481 19 3 15 -1 21 -17 23 -20 3
-21 9 -21 93 0 82 2 91 21 99 22 10 34 60 34 148 0 20 4 38 9 40 6 2 11 16 13
31 3 16 9 32 15 35 6 4 14 51 18 105 7 94 8 97 31 97 17 0 24 6 24 18 0 10 2
21 4 23 2 2 114 3 248 2 133 -2 346 -3 472 -3z m876 -70 c0 -27 -3 -30 -30
-30 -27 0 -30 3 -30 30 0 27 3 30 30 30 27 0 30 -3 30 -30z m660 0 c0 -27 -3
-30 -30 -30 -27 0 -30 3 -30 30 0 27 3 30 30 30 27 0 30 -3 30 -30z m1525
-121 c-6 -8 12 -11 83 -12 12 -1 22 -5 22 -10 0 -4 -27 -7 -60 -5 -55 3 -60 5
-60 26 0 13 4 20 10 17 6 -4 8 -11 5 -16z m-517 -36 c3 -32 2 -33 -32 -33 -33
0 -36 3 -36 28 0 36 8 44 40 40 20 -2 26 -9 28 -35z m-338 -31 c10 -5 15 -20
14 -42 -1 -19 -2 -52 -3 -73 l-1 -38 -62 3 -63 3 -3 64 c-2 35 -1 70 2 77 6
15 88 19 116 6z m960 -12 c0 -7 -20 -9 -57 -4 -78 8 -79 14 -5 14 37 0 62 -4
62 -10z m-12 -27 c-10 -2 -26 -2 -35 0 -10 3 -2 5 17 5 19 0 27 -2 18 -5z
m-7408 -593 c0 -25 -4 -30 -25 -30 -34 0 -36 46 -2 53 12 2 23 5 25 6 1 0 2
-12 2 -29z m1707 -46 c12 -3 23 -15 25 -28 2 -13 11 -22 26 -24 21 -3 23 -8
19 -40 -11 -84 -32 -164 -44 -169 -7 -3 -13 -21 -13 -42 0 -53 -10 -79 -31
-84 -17 -5 -19 -15 -19 -86 0 -74 -2 -81 -20 -81 -11 0 -21 -7 -21 -15 -1 -8
-2 -18 -3 -22 -1 -5 -6 -40 -10 -80 -7 -68 -9 -72 -34 -75 -21 -2 -28 -9 -30
-31 l-3 -28 -500 2 c-486 2 -499 3 -493 21 4 14 0 21 -16 25 -19 5 -21 10 -15
42 4 20 8 58 8 85 0 44 3 50 28 59 26 10 27 14 34 109 6 94 8 98 30 98 21 0
24 5 30 71 6 57 11 72 25 76 20 5 25 21 35 106 7 55 8 57 36 57 24 0 29 4 29
23 0 13 3 27 7 30 8 9 889 9 920 1z m1301 -26 c3 -23 8 -28 29 -28 29 0 29 1
-2 -187 -4 -23 -11 -33 -24 -33 -16 0 -20 -13 -27 -117 -9 -112 -10 -118 -31
-121 -21 -3 -23 -9 -23 -56 0 -29 -3 -81 -6 -115 -6 -55 -9 -61 -30 -61 -17 0
-24 -7 -29 -30 l-7 -31 -496 3 -497 3 2 22 c2 16 -4 23 -20 25 -15 2 -21 9
-20 23 1 11 5 54 9 95 7 86 10 93 32 86 15 -5 17 6 20 92 2 53 6 100 8 104 3
5 14 8 25 8 17 0 19 7 19 59 0 40 4 61 13 64 8 3 15 23 16 49 1 23 5 61 10 83
6 34 10 40 29 38 13 -2 25 4 27 12 3 8 7 22 10 30 4 13 63 15 482 13 l478 -3
3 -27z m1298 23 c1 -1 1 -11 0 -23 -1 -18 4 -22 22 -20 26 4 27 -1 10 -134
-10 -80 -14 -94 -30 -94 -15 0 -18 -9 -19 -57 -1 -49 -5 -143 -8 -164 -1 -4
-10 -9 -21 -12 -19 -5 -20 -14 -20 -121 0 -115 0 -116 -24 -116 -18 0 -25 -7
-29 -30 l-6 -30 -501 0 -500 0 0 30 c0 23 -4 30 -20 30 -18 0 -20 7 -20 58 0
105 11 164 32 170 16 4 18 15 18 89 0 76 2 85 20 90 13 4 20 14 21 32 0 14 2
33 4 41 3 8 12 61 21 118 16 94 19 103 38 100 15 -2 22 3 24 19 2 13 12 24 25
26 18 4 959 2 963 -2z m3201 -377 c-3 -3 -12 -4 -19 -1 -8 3 -5 6 6 6 11 1 17
-2 13 -5z"/>
<path d="M4788 7613 c7 -3 16 -2 19 1 4 3 -2 6 -13 5 -11 0 -14 -3 -6 -6z"/>
<path d="M4808 7463 c7 -3 16 -2 19 1 4 3 -2 6 -13 5 -11 0 -14 -3 -6 -6z"/>
<path d="M6737 7653 c-1 0 -29 -4 -62 -7 -33 -3 -72 -9 -87 -12 -18 -4 -28 -2
-28 5 0 7 -5 9 -11 5 -6 -3 -8 -15 -6 -26 4 -13 -1 -22 -16 -28 -13 -5 -16 -9
-7 -10 10 0 11 -3 4 -8 -6 -4 -13 -14 -16 -23 -4 -11 -15 -15 -37 -11 -25 3
-30 1 -25 -11 3 -9 14 -19 25 -22 21 -7 26 -25 7 -25 -10 0 -10 -2 0 -9 11 -6
10 -10 -4 -15 -16 -6 -16 -8 -4 -16 11 -7 12 -10 2 -10 -7 0 -10 -5 -7 -10 3
-6 -1 -13 -10 -16 -13 -6 -14 -8 -3 -15 10 -7 10 -11 1 -17 -8 -5 -12 -28 -12
-58 1 -62 -2 -78 -20 -85 -17 -6 -23 -49 -7 -49 6 0 4 -5 -5 -10 -11 -6 -15
-18 -11 -35 2 -15 0 -25 -7 -25 -7 0 -11 -28 -11 -80 0 -64 -3 -80 -15 -80
-19 0 -20 -16 -2 -23 11 -4 12 -15 4 -56 -6 -28 -9 -53 -6 -56 6 -6 78 -7 296
-6 l162 1 3 58 c3 50 6 57 25 60 21 3 22 9 25 85 3 78 4 82 28 87 24 5 25 8
27 90 2 114 10 150 35 150 18 0 19 7 17 100 -2 79 -6 100 -17 100 -8 0 -12 6
-8 15 3 8 1 15 -4 15 -6 0 -10 7 -10 15 0 10 -10 15 -31 15 -17 0 -28 4 -24
10 3 6 18 10 32 10 28 0 23 14 -5 16 -9 0 -24 3 -32 7 -13 5 -139 15 -143 10z"/>
<path d="M6330 6970 c0 -5 5 -10 10 -10 6 0 10 5 10 10 0 6 -4 10 -10 10 -5 0
-10 -4 -10 -10z"/>
<path d="M10270 7040 c0 -5 7 -10 15 -10 8 0 15 5 15 10 0 6 -7 10 -15 10 -8
0 -15 -4 -15 -10z"/>
<path d="M9821 7014 c0 -11 3 -14 6 -6 3 7 2 16 -1 19 -3 4 -6 -2 -5 -13z"/>
<path d="M10950 7315 c0 -8 2 -15 4 -15 2 0 6 7 10 15 3 8 1 15 -4 15 -6 0
-10 -7 -10 -15z"/>
<path d="M5280 5720 l0 -40 59 0 c58 0 59 1 65 31 3 17 6 35 6 40 0 5 -29 9
-65 9 l-65 0 0 -40z"/>
<path d="M6138 5735 c4 -23 8 -25 63 -25 56 0 59 1 59 25 0 24 -2 25 -64 25
-62 0 -63 0 -58 -25z"/>
<path d="M6140 5610 c0 -29 2 -30 44 -30 24 0 51 -3 60 -6 13 -5 16 1 16 30
l0 36 -60 0 -60 0 0 -30z"/>
<path d="M6440 5715 l0 -45 60 0 60 0 0 45 0 45 -60 0 -60 0 0 -45z"/>
<path d="M7302 5668 l3 -93 58 -3 57 -3 0 96 0 95 -60 0 -61 0 3 -92z"/>
<path d="M8070 5715 l0 -45 60 0 60 0 0 45 0 45 -60 0 -60 0 0 -45z"/>
<path d="M9460 5715 l0 -45 65 0 65 0 0 45 0 45 -65 0 -65 0 0 -45z"/>
<path d="M10210 5715 l0 -45 60 0 60 0 0 45 0 45 -60 0 -60 0 0 -45z"/>
<path d="M10520 5720 l0 -40 63 0 63 0 2 40 3 40 -66 0 -65 0 0 -40z"/>
<path d="M11400 5715 l0 -45 60 0 60 0 0 45 0 45 -60 0 -60 0 0 -45z"/>
<path d="M3628 4433 c6 -2 18 -2 25 0 6 3 1 5 -13 5 -14 0 -19 -2 -12 -5z"/>
<path d="M3860 4320 c0 -13 7 -20 20 -20 13 0 20 7 20 20 0 13 -7 20 -20 20
-13 0 -20 -7 -20 -20z"/>
<path d="M8465 3880 c-3 -5 -1 -10 4 -10 6 0 11 5 11 10 0 6 -2 10 -4 10 -3 0
-8 -4 -11 -10z"/>
<path d="M7430 3650 c0 -5 5 -10 10 -10 6 0 10 5 10 10 0 6 -4 10 -10 10 -5 0
-10 -4 -10 -10z"/>
<path d="M3858 3433 c12 -2 32 -2 45 0 12 2 2 4 -23 4 -25 0 -35 -2 -22 -4z"/>
<path d="M12100 4025 c0 -20 5 -25 25 -25 27 0 29 -7 25 -82 -1 -34 1 -38 22
-38 13 0 33 -3 46 -6 22 -6 22 -5 20 57 l-3 64 -42 3 c-38 3 -43 6 -43 28 0
19 -5 24 -25 24 -20 0 -25 -5 -25 -25z m120 -75 c0 -5 -2 -10 -4 -10 -3 0 -8
5 -11 10 -3 6 -1 10 4 10 6 0 11 -4 11 -10z"/>
<path d="M2370 4005 c0 -20 -5 -25 -24 -25 -22 0 -24 -5 -32 -67 -8 -60 -12
-68 -31 -71 -20 -3 -23 -9 -23 -51 0 -26 -4 -51 -9 -56 -6 -6 -11 -34 -13 -64
-2 -44 -7 -55 -21 -57 -24 -3 -23 -1 -30 -61 -5 -48 -4 -53 13 -53 13 0 20 -7
20 -20 0 -20 7 -20 384 -20 373 0 385 1 391 19 3 11 14 23 24 26 15 4 22 24
32 85 10 63 16 80 29 80 20 0 30 43 30 126 0 37 4 54 15 58 8 3 15 17 15 31 0
16 6 25 15 25 8 0 15 8 15 18 0 9 3 27 6 40 5 19 2 22 -21 22 -22 0 -25 3 -20
20 6 20 2 20 -379 20 l-386 0 0 -25z"/>
<path d="M11490 3789 c0 -5 5 -7 10 -4 6 3 10 8 10 11 0 2 -4 4 -10 4 -5 0
-10 -5 -10 -11z"/>
<path d="M10049 3699 c-9 -6 2 -9 35 -9 53 0 58 8 9 14 -16 2 -36 0 -44 -5z"/>
<path d="M10475 3700 c-3 -5 -1 -10 4 -10 6 0 11 5 11 10 0 6 -2 10 -4 10 -3
0 -8 -4 -11 -10z"/>
<path d="M2100 3155 c0 -20 -5 -25 -24 -25 -19 0 -25 -6 -29 -32 -19 -115 -20
-118 -38 -118 -16 0 -19 -8 -19 -42 0 -43 -18 -108 -34 -119 -5 -4 -11 -30
-14 -58 -3 -40 -8 -51 -22 -51 -12 0 -19 -11 -23 -32 -4 -18 -9 -43 -13 -55
-5 -19 -2 -23 16 -23 17 0 21 -4 17 -20 -5 -20 0 -20 403 -20 399 0 408 0 413
20 3 11 14 20 25 20 20 0 32 38 32 107 0 20 7 37 20 46 28 19 37 52 46 157 6
78 10 93 25 97 16 4 21 16 19 36 -1 1 8 20 19 42 21 45 19 59 -10 50 -15 -5
-19 -1 -19 19 l0 26 -395 0 -395 0 0 -25z"/>
<path d="M3320 3155 c-6 -16 -17 -25 -30 -25 -12 0 -20 -6 -19 -12 1 -7 -1
-41 -6 -75 -6 -52 -11 -63 -26 -63 -16 0 -19 -8 -19 -50 0 -27 -4 -50 -9 -50
-5 0 -13 -36 -17 -80 -5 -67 -9 -80 -24 -80 -11 0 -20 -10 -23 -27 -20 -96
-21 -93 2 -93 14 0 21 -6 21 -20 0 -20 7 -20 410 -20 368 0 410 2 410 16 0 9
9 18 19 21 20 5 31 41 31 103 0 26 8 45 26 65 24 26 26 35 28 132 1 92 4 104
22 118 12 8 24 29 27 47 3 18 8 41 12 51 5 13 2 17 -14 17 -16 0 -21 6 -21 25
l0 25 -395 0 -395 0 -10 -25z"/>
<path d="M4548 3155 c-2 -12 -10 -20 -23 -20 -18 0 -20 -8 -23 -77 -2 -64 -6
-78 -21 -83 -20 -6 -28 -33 -37 -134 -4 -36 -8 -73 -10 -81 -1 -8 -3 -21 -3
-27 -1 -7 -7 -13 -15 -13 -8 0 -16 -17 -20 -46 -9 -68 -8 -74 14 -74 13 0 20
-7 20 -20 0 -20 7 -20 410 -20 368 0 410 2 410 16 0 9 9 18 19 21 22 6 31 41
31 119 0 40 4 54 14 54 21 0 26 23 26 130 0 83 3 101 17 109 10 5 22 32 28 65
11 52 10 55 -9 58 -13 2 -21 10 -21 23 0 20 -7 20 -402 20 -397 1 -402 1 -405
-20z"/>
<path d="M1788 2208 c-2 -14 -12 -24 -28 -28 -26 -6 -27 -7 -29 -69 -1 -28 -6
-40 -19 -43 -18 -5 -42 -81 -42 -134 0 -19 -5 -24 -25 -24 -24 0 -25 -3 -26
-57 -1 -32 -1 -73 0 -90 2 -29 -1 -33 -22 -33 -20 0 -25 -7 -35 -51 -17 -71
-16 -79 12 -79 19 0 23 -4 19 -20 -4 -14 0 -20 13 -21 11 -1 204 -1 429 0 399
2 410 2 413 21 2 11 11 20 21 20 15 0 19 14 27 93 8 85 11 92 32 95 21 3 22 8
22 88 0 77 2 84 20 84 18 0 20 7 20 55 0 40 4 57 15 61 8 4 15 14 15 23 0 9 7
29 15 45 16 31 12 46 -12 46 -10 0 -14 6 -10 20 5 20 0 20 -408 20 l-414 0 -3
-22z"/>
<path d="M3058 2208 c-2 -15 -11 -24 -25 -26 -18 -3 -23 -14 -34 -75 -6 -40
-16 -76 -21 -81 -4 -6 -8 -25 -8 -44 0 -26 -5 -35 -20 -39 -25 -7 -29 -25 -32
-128 -3 -73 -5 -80 -24 -83 -18 -3 -22 -12 -27 -50 -2 -26 -8 -55 -12 -64 -6
-15 -2 -18 19 -18 19 0 26 -5 26 -19 0 -11 9 -21 23 -24 12 -3 204 -4 427 -2
397 4 405 4 408 24 2 11 12 23 23 26 17 6 19 16 19 96 0 86 1 90 25 99 23 9
24 13 27 117 3 103 4 108 26 111 18 3 22 10 22 41 0 21 7 54 15 74 15 37 12
47 -17 47 -15 0 -18 5 -13 20 6 20 2 20 -409 20 l-415 0 -3 -22z"/>
<path d="M4338 2208 c-2 -15 -11 -24 -25 -26 -23 -3 -27 -23 -39 -159 -5 -54
-8 -62 -27 -65 -21 -3 -22 -9 -25 -107 -2 -90 -5 -104 -21 -108 -30 -8 -45
-143 -16 -143 8 0 15 -9 15 -20 0 -23 -40 -21 514 -24 l348 -1 9 23 c5 12 15
22 24 22 12 0 15 16 15 90 0 87 1 91 25 100 25 9 25 11 25 125 0 106 1 115 19
115 15 0 19 10 23 58 3 31 8 64 12 74 5 11 1 18 -13 23 -12 3 -21 15 -21 26 0
18 -12 19 -419 19 l-420 0 -3 -22z"/>
</g>
</svg>
